<?xml version="1.0" encoding="UTF-8"?>
<svg width="38px" height="30px" viewBox="0 0 38 30" version="1.1" xmlns="http://www.w3.org/2000/svg" xmlns:xlink="http://www.w3.org/1999/xlink">
    <!-- Generator: Sketch 53.2 (72643) - https://sketchapp.com -->
    <title>Shape</title>
    <desc>Created with Sketch.</desc>
    <g id="钱包UI" stroke="none" stroke-width="1" fill="none" fill-rule="evenodd">
        <g id="3-2_uNode" transform="translate(-61.000000, -902.000000)" fill="#409EFF" fill-rule="nonzero">
            <path d="M84.6568551,902.046179 C89.9874908,904.959275 93.5983903,910.542381 93.5983903,916.962193 C93.5983903,923.382004 89.9874909,928.963641 84.6568551,931.87825 C92.6258144,931.39757 98.9398324,924.912382 98.9398324,916.962193 C98.9398324,909.012004 92.6234709,902.529107 84.6568551,902.046179 Z M91.4602424,916.962193 C91.4602424,908.69978 84.641405,902 76.2301212,902 C67.8188374,902 61,908.69978 61,916.962193 C61,925.226119 67.8188374,931.924386 76.2301212,931.924386 C84.641405,931.924386 91.4602424,925.226163 91.4602424,916.962193 Z M82.5094198,919.585333 C82.8884249,919.613784 83.1879227,919.756859 83.4063508,920.015252 C83.6248224,920.272822 83.7483365,920.581241 83.7776743,920.939644 C83.7483365,921.311796 83.6248658,921.62402 83.4063508,921.874759 C83.1879227,922.123899 82.8884249,922.263904 82.5094198,922.293133 L78.3088122,922.271601 L78.3088122,924.550996 C78.2501365,925.768328 77.5716769,926.376648 76.2741279,926.376648 C75.6319067,926.376648 75.1325123,926.227433 74.7751199,925.926018 C74.417771,925.625296 74.2239936,925.166234 74.1954804,924.550996 L74.1954804,922.314666 L69.9724354,922.314666 C69.5788047,922.28695 69.2762256,922.125412 69.0646979,921.831694 C68.8532136,921.537889 68.725837,921.211829 68.6818736,920.853513 C68.7258804,920.495111 68.8532136,920.201306 69.0646979,919.972186 C69.2762255,919.74298 69.5788047,919.613784 69.9724354,919.585333 L74.1954804,919.585333 L74.1954804,918.231108 L69.9724354,918.209576 C69.5788047,918.180346 69.2762256,918.044967 69.0646979,917.800498 C68.8532136,917.557455 68.725837,917.249857 68.6818736,916.876105 C68.7258804,916.518481 68.8532136,916.225498 69.0646979,915.9956 C69.2762255,915.766393 69.5788047,915.637241 69.9724354,915.60879 L73.1233034,915.60879 L70.1909503,910.536328 C70.0450422,910.364066 69.9068592,910.14567 69.7756634,909.880316 C69.6444677,909.615006 69.585792,909.325093 69.6004609,909.00902 C69.6730244,908.607596 69.818889,908.28227 70.0380983,908.03084 C70.2565699,907.780144 70.6648694,907.620162 71.2631273,907.547911 C71.6135324,907.57714 71.9269613,907.69557 72.2040651,907.9032 C72.481169,908.11083 72.7073655,908.336145 72.8825681,908.579966 L76.2078574,914.555288 L79.861939,908.536901 C80.0371416,908.293902 80.2633381,908.078531 80.540442,907.892434 C80.8175458,907.704823 81.1317126,907.590976 81.4813798,907.547911 C81.7006325,907.561747 81.9013104,907.590976 82.0826756,907.634041 C82.264822,907.677107 82.4253556,907.749401 82.565101,907.849368 C82.7040218,907.949335 82.8205921,908.093146 82.9147683,908.278465 C83.0089445,908.465342 83.0784267,908.709119 83.12239,909.01062 C83.12239,909.425881 82.9765253,909.819609 82.6855338,910.193362 L79.2938871,915.608833 L82.5103313,915.608833 C82.889293,915.638062 83.1888342,915.767258 83.4064377,915.996422 C83.6256904,916.225585 83.7491611,916.519389 83.778499,916.877748 C83.7491611,917.249944 83.6218279,917.565238 83.3956747,917.82363 C83.1694782,918.080423 82.866899,918.223498 82.4878939,918.252727 L78.3088991,918.27426 L78.3088991,919.585419 L82.5094198,919.585419 L82.5094198,919.585333 Z" id="Shape"></path>
        </g>
    </g>
</svg>